<mxfile host="app.diagrams.net" modified="2020-11-04T04:37:01.555Z" agent="5.0 (Windows NT 6.1; Win64; x64) AppleWebKit/537.36 (KHTML, like Gecko) Chrome/86.0.4240.111 Safari/537.36" etag="Zh6pt7gpnKksH5vOTekW" version="13.8.1" type="github">
  <diagram id="JnXaKMin7almXqI7u_T9" name="第 1 页">
    <mxGraphModel dx="1102" dy="582" grid="1" gridSize="10" guides="1" tooltips="1" connect="1" arrows="1" fold="1" page="1" pageScale="1" pageWidth="827" pageHeight="1169" math="0" shadow="0">
      <root>
        <mxCell id="0" />
        <mxCell id="1" parent="0" />
        <mxCell id="TZY3yxVqYku2SVK_G33z-6" value="进程 B" style="rounded=0;whiteSpace=wrap;html=1;fontSize=16;verticalAlign=top;fontStyle=1;fillColor=#eeeeee;sketch=0;shadow=1;strokeColor=none;" vertex="1" parent="1">
          <mxGeometry x="370" y="20" width="270" height="270" as="geometry" />
        </mxCell>
        <mxCell id="TZY3yxVqYku2SVK_G33z-5" value="进程 A" style="rounded=0;whiteSpace=wrap;html=1;fontSize=16;verticalAlign=top;fontStyle=1;fillColor=#f9f7ed;sketch=0;shadow=1;strokeColor=none;" vertex="1" parent="1">
          <mxGeometry x="115" y="20" width="150" height="270" as="geometry" />
        </mxCell>
        <mxCell id="TZY3yxVqYku2SVK_G33z-1" value="主线程" style="rounded=1;whiteSpace=wrap;html=1;fontSize=16;fillColor=#cce5ff;shadow=1;strokeColor=none;" vertex="1" parent="1">
          <mxGeometry x="160" y="60" width="60" height="200" as="geometry" />
        </mxCell>
        <mxCell id="TZY3yxVqYku2SVK_G33z-2" value="主线程" style="rounded=1;whiteSpace=wrap;html=1;fontSize=16;fillColor=#cce5ff;shadow=1;strokeColor=none;" vertex="1" parent="1">
          <mxGeometry x="400" y="60" width="60" height="200" as="geometry" />
        </mxCell>
        <mxCell id="TZY3yxVqYku2SVK_G33z-3" value="线程" style="rounded=1;whiteSpace=wrap;html=1;fontSize=16;fillColor=#ffcc99;strokeColor=none;shadow=1;" vertex="1" parent="1">
          <mxGeometry x="500" y="130" width="50" height="130" as="geometry" />
        </mxCell>
        <mxCell id="TZY3yxVqYku2SVK_G33z-4" value="线程" style="rounded=1;whiteSpace=wrap;html=1;fontSize=16;fillColor=#ffcc99;strokeColor=none;shadow=1;" vertex="1" parent="1">
          <mxGeometry x="570" y="130" width="50" height="130" as="geometry" />
        </mxCell>
        <mxCell id="TZY3yxVqYku2SVK_G33z-7" value="" style="endArrow=none;dashed=1;html=1;dashPattern=1 3;strokeWidth=2;fontSize=16;" edge="1" parent="1">
          <mxGeometry width="50" height="50" relative="1" as="geometry">
            <mxPoint x="40" y="320" as="sourcePoint" />
            <mxPoint x="680" y="320" as="targetPoint" />
          </mxGeometry>
        </mxCell>
        <mxCell id="TZY3yxVqYku2SVK_G33z-8" value="用户态" style="text;html=1;align=center;verticalAlign=middle;resizable=0;points=[];autosize=1;fontSize=16;fontStyle=1" vertex="1" parent="1">
          <mxGeometry x="40" y="290" width="60" height="20" as="geometry" />
        </mxCell>
        <mxCell id="TZY3yxVqYku2SVK_G33z-9" value="内核态" style="text;html=1;align=center;verticalAlign=middle;resizable=0;points=[];autosize=1;fontSize=16;fontStyle=1" vertex="1" parent="1">
          <mxGeometry x="40" y="330" width="60" height="20" as="geometry" />
        </mxCell>
        <mxCell id="TZY3yxVqYku2SVK_G33z-14" style="edgeStyle=orthogonalEdgeStyle;rounded=0;orthogonalLoop=1;jettySize=auto;html=1;entryX=0.5;entryY=1;entryDx=0;entryDy=0;fontSize=16;dashed=1;" edge="1" parent="1" source="TZY3yxVqYku2SVK_G33z-12" target="TZY3yxVqYku2SVK_G33z-1">
          <mxGeometry relative="1" as="geometry" />
        </mxCell>
        <mxCell id="TZY3yxVqYku2SVK_G33z-22" style="edgeStyle=orthogonalEdgeStyle;rounded=0;orthogonalLoop=1;jettySize=auto;html=1;entryX=0;entryY=0.5;entryDx=0;entryDy=0;fontSize=16;" edge="1" parent="1" source="TZY3yxVqYku2SVK_G33z-12" target="TZY3yxVqYku2SVK_G33z-15">
          <mxGeometry relative="1" as="geometry" />
        </mxCell>
        <mxCell id="TZY3yxVqYku2SVK_G33z-12" value="任务" style="rounded=0;whiteSpace=wrap;html=1;fontSize=16;shadow=1;fillColor=#d5e8d4;strokeColor=none;" vertex="1" parent="1">
          <mxGeometry x="152.5" y="360" width="75" height="40" as="geometry" />
        </mxCell>
        <mxCell id="TZY3yxVqYku2SVK_G33z-16" style="edgeStyle=orthogonalEdgeStyle;rounded=0;orthogonalLoop=1;jettySize=auto;html=1;entryX=0.5;entryY=1;entryDx=0;entryDy=0;fontSize=16;dashed=1;" edge="1" parent="1" source="TZY3yxVqYku2SVK_G33z-15" target="TZY3yxVqYku2SVK_G33z-2">
          <mxGeometry relative="1" as="geometry" />
        </mxCell>
        <mxCell id="TZY3yxVqYku2SVK_G33z-23" style="edgeStyle=orthogonalEdgeStyle;rounded=0;orthogonalLoop=1;jettySize=auto;html=1;fontSize=16;" edge="1" parent="1" source="TZY3yxVqYku2SVK_G33z-15" target="TZY3yxVqYku2SVK_G33z-17">
          <mxGeometry relative="1" as="geometry" />
        </mxCell>
        <mxCell id="TZY3yxVqYku2SVK_G33z-15" value="任务" style="rounded=0;whiteSpace=wrap;html=1;fontSize=16;shadow=1;fillColor=#d5e8d4;strokeColor=none;" vertex="1" parent="1">
          <mxGeometry x="350" y="360" width="75" height="40" as="geometry" />
        </mxCell>
        <mxCell id="TZY3yxVqYku2SVK_G33z-18" style="edgeStyle=orthogonalEdgeStyle;rounded=0;orthogonalLoop=1;jettySize=auto;html=1;entryX=0.5;entryY=1;entryDx=0;entryDy=0;fontSize=16;dashed=1;" edge="1" parent="1" source="TZY3yxVqYku2SVK_G33z-17" target="TZY3yxVqYku2SVK_G33z-3">
          <mxGeometry relative="1" as="geometry" />
        </mxCell>
        <mxCell id="TZY3yxVqYku2SVK_G33z-24" style="edgeStyle=orthogonalEdgeStyle;rounded=0;orthogonalLoop=1;jettySize=auto;html=1;entryX=0;entryY=0.5;entryDx=0;entryDy=0;fontSize=16;" edge="1" parent="1" source="TZY3yxVqYku2SVK_G33z-17" target="TZY3yxVqYku2SVK_G33z-20">
          <mxGeometry relative="1" as="geometry" />
        </mxCell>
        <mxCell id="TZY3yxVqYku2SVK_G33z-17" value="任务" style="rounded=0;whiteSpace=wrap;html=1;fontSize=16;shadow=1;fillColor=#d5e8d4;strokeColor=none;" vertex="1" parent="1">
          <mxGeometry x="467.5" y="360" width="75" height="40" as="geometry" />
        </mxCell>
        <mxCell id="TZY3yxVqYku2SVK_G33z-21" style="edgeStyle=orthogonalEdgeStyle;rounded=0;orthogonalLoop=1;jettySize=auto;html=1;entryX=0.5;entryY=1;entryDx=0;entryDy=0;fontSize=16;dashed=1;" edge="1" parent="1" source="TZY3yxVqYku2SVK_G33z-20" target="TZY3yxVqYku2SVK_G33z-4">
          <mxGeometry relative="1" as="geometry" />
        </mxCell>
        <mxCell id="TZY3yxVqYku2SVK_G33z-20" value="任务" style="rounded=0;whiteSpace=wrap;html=1;fontSize=16;shadow=1;fillColor=#d5e8d4;strokeColor=none;" vertex="1" parent="1">
          <mxGeometry x="580" y="360" width="75" height="40" as="geometry" />
        </mxCell>
        <mxCell id="TZY3yxVqYku2SVK_G33z-25" value="任务列表" style="text;html=1;align=center;verticalAlign=middle;resizable=0;points=[];autosize=1;fontSize=16;" vertex="1" parent="1">
          <mxGeometry x="70" y="370" width="80" height="20" as="geometry" />
        </mxCell>
      </root>
    </mxGraphModel>
  </diagram>
</mxfile>
